# xmcd CD database file generated by Grip 3.3.1
# 
# Track frame offsets:
#       150
#       29729
#       38903
#       62919
#       72452
#       106111
#       147232
#       159683
#       171453
#       199130
#       208038
#       227811
#       257063
#       286995
#       314557
# 
# Disc length: 4573 seconds
# 
# Revision: 1
# Processed by: cddbd v1.5.2PL0 Copyright (c) Steve Scherf et al.
# Submitted via: Grip 3.3.1
# 
DISCID=ee11db0f
DTITLE=Various Artist - Great Cathedral Organs [CD4]
DYEAR=2011
DGENRE=Classical
TTITLE0=William Walond - Voluntary in G, op. 1 no. 5
TTITLE1=Flor Peeters - Chorale Prelude on "Herders, hij is geboren", op. 
TTITLE1=39 no. 2
TTITLE2=Jean Langlais - Te Deum (Hymne d’actions de grâces)
TTITLE3=Domenico Scarlatti - Sonata in D, Kk 288
TTITLE4=Jan Pieterszoon Sweelinck - Variations on "Mein junges Leben hat 
TTITLE4=ein End"
TTITLE5=Felix Mendelssohn - Sonata no. 6 in D minor, op. 65 no. 6: I. Cho
TTITLE5=rale "Vater unser im Himmelreich" and Variations
TTITLE6=Felix Mendelssohn - Sonata no. 6 in D minor, op. 65 no. 6: II. Fu
TTITLE6=ga
TTITLE7=Felix Mendelssohn - Sonata no. 6 in D minor, op. 65 no. 6: III. F
TTITLE7=inale
TTITLE8=Samuel Sebastian Wesley - Holsworthy Church Bells (Air with Varia
TTITLE8=tions)
TTITLE9=Craig Sellar Lang - Tuba Tune in D
TTITLE10=Sir George Thalben-Ball - Elegy in B-flat
TTITLE11=Harold Darke - A Fantasy, op. 39 no. 2
TTITLE12=Flor Peeters - Partita on "Veni creator spiritus", op. 75 no. 6
TTITLE13=Johann Pachelbel - Partita on "Christus, der ist mein Leben"
TTITLE14=Herbert Howells - Psalm-Prelude, Set 2 no. 2
EXTD=
EXTT0=
EXTT1=
EXTT2=
EXTT3=
EXTT4=
EXTT5=
EXTT6=
EXTT7=
EXTT8=
EXTT9=
EXTT10=
EXTT11=
EXTT12=
EXTT13=
EXTT14=
PLAYORDER=
